<svg width="512" height="512" viewBox="0 0 512 512" xmlns="http://www.w3.org/2000/svg">
<defs>
  <radialGradient id="g1" cx="50%" cy="50%" r="70%">
    <stop offset="0%" stop-color="#00ff88" stop-opacity="0.25"></stop>
    <stop offset="100%" stop-color="#003314" stop-opacity="1"></stop>
  </radialGradient>
</defs>

<!-- Octagon Frame -->
<path d="M150 20 L362 20 L492 150 L492 362 L362 492 L150 492 L20 362 L20 150 Z" fill="#021409" stroke="#00ff66" stroke-width="8"></path>

<!-- Background Glow -->
<circle cx="256" cy="256" r="220" fill="url(#g1)"></circle>

<!-- Radar Rings -->
<circle cx="256" cy="256" r="180" stroke="#00ff66" stroke-width="10" opacity="0.35"></circle>
<circle cx="256" cy="256" r="130" stroke="#00ff66" stroke-width="8" opacity="0.28"></circle>
<circle cx="256" cy="256" r="90" stroke="#00ff66" stroke-width="6" opacity="0.22"></circle>
<circle cx="256" cy="256" r="50" stroke="#00ff66" stroke-width="5" opacity="0.18"></circle>

<!-- Grid Lines -->
<line x1="256" y1="60" x2="256" y2="452" stroke="#00ff66" stroke-width="3" opacity="0.3"></line>
<line x1="60" y1="256" x2="452" y2="256" stroke="#00ff66" stroke-width="3" opacity="0.3"></line>
<line x1="120" y1="120" x2="392" y2="392" stroke="#00ff66" stroke-width="2" opacity="0.2"></line>
<line x1="392" y1="120" x2="120" y2="392" stroke="#00ff66" stroke-width="2" opacity="0.2"></line>

<!-- Sweeping Arc -->
<path d="M256 256 L450 240 A200 200 0 0 1 330 440 Z" fill="rgba(0,255,102,0.22)"></path>

<!-- Center Crosshair -->
<circle cx="256" cy="256" r="12" fill="#00ff66"></circle>
<path d="M256 230 v-18 M256 284 v18 M230 256 h-18 M284 256 h18" stroke="#00ff66" stroke-width="4"></path>

<!-- Hostile Target Blip -->
<circle cx="360" cy="160" r="12" fill="#ff4040"></circle>
<circle cx="360" cy="160" r="20" stroke="#ff4040" stroke-width="4" opacity="0.45"></circle>

<!-- Jet Icon (simple silhouette) -->
<path d="M130 180 l20 -40 l20 40 l-20 -5 z" fill="#00ff66" opacity="0.9"></path>

<!-- Tank Icon -->
<rect x="340" y="310" width="65" height="20" rx="4" fill="#00ff66"></rect>
<rect x="355" y="295" width="35" height="15" rx="3" fill="#00ff66"></rect>
<rect x="395" y="300" width="40" height="10" rx="3" fill="#00ff66"></rect>

<!-- HUD Corners -->
<rect x="40" y="40" width="30" height="6" fill="#00ff66" opacity="0.8"></rect>
<rect x="40" y="40" width="6" height="30" fill="#00ff66" opacity="0.8"></rect>
<rect x="442" y="40" width="30" height="6" fill="#00ff66" opacity="0.8"></rect>
<rect x="466" y="40" width="6" height="30" fill="#00ff66" opacity="0.8"></rect>
<rect x="40" y="442" width="30" height="6" fill="#00ff66" opacity="0.8"></rect>
<rect x="40" y="418" width="6" height="30" fill="#00ff66" opacity="0.8"></rect>
<rect x="442" y="442" width="30" height="6" fill="#00ff66" opacity="0.8"></rect>
<rect x="466" y="418" width="6" height="30" fill="#00ff66" opacity="0.8"></rect>
</svg>
